<!DOCTYPE svg PUBLIC "-//W3C//DTD SVG 20010904//EN" "http://www.w3.org/TR/2001/REC-SVG-20010904/DTD/svg10.dtd">
<svg version="1.0" xmlns="http://www.w3.org/2000/svg" width="128px" height="128px" viewBox="0 0 1280 1280" preserveAspectRatio="xMidYMid meet">
<g id="layer101" fill="#8a8a8a" stroke="none">
 <path d="M486 954 c-135 -33 -267 -128 -308 -224 -31 -71 -28 -164 8 -229 75 -139 241 -221 446 -221 167 0 304 53 393 152 62 69 78 108 78 193 1 86 -22 136 -96 207 -122 116 -336 167 -521 122z m192 -20 c37 -26 25 -34 -48 -34 -75 0 -87 10 -42 34 35 20 62 20 90 0z m-138 -8 c-6 -8 -19 -12 -27 -9 -14 6 -14 8 3 14 30 12 37 10 24 -5z m205 4 c19 -8 19 -9 -2 -9 -12 -1 -25 4 -28 9 -7 12 2 12 30 0z m-350 -45 c-27 -22 -65 -33 -65 -20 0 6 79 44 90 45 3 0 -8 -11 -25 -25z m102 19 l22 -6 -20 -40 c-14 -28 -25 -38 -37 -34 -9 3 -29 8 -44 12 -37 8 -35 16 9 47 42 30 39 29 70 21z m344 -26 c47 -34 46 -36 -27 -52 -29 -7 -33 -4 -51 33 -18 36 -18 41 -4 44 31 9 39 7 82 -25z m52 10 c30 -16 37 -23 24 -26 -9 -2 -31 8 -48 22 -37 32 -31 33 24 4z m-149 -36 c9 -18 16 -35 16 -37 0 -10 -239 -5 -245 5 -3 5 1 22 9 37 14 28 15 28 109 28 l96 0 15 -33z m-416 -10 c10 -7 7 -18 -12 -53 -13 -24 -27 -55 -31 -68 -12 -40 12 -15 46 49 29 55 34 59 58 53 77 -19 76 -18 74 -54 -4 -57 9 -68 21 -20 l11 43 137 2 136 1 10 -50 c6 -30 7 -57 1 -67 -5 -9 -9 -35 -9 -57 0 -77 97 -145 159 -111 30 15 28 -6 -5 -54 -22 -32 -30 -37 -51 -31 -14 3 -38 9 -54 12 -29 5 -29 6 -23 56 8 59 -10 59 -19 0 l-6 -38 -140 0 -139 0 -9 42 c-6 24 -6 48 -1 57 6 11 5 18 -4 21 -15 6 -12 82 3 101 7 8 -1 20 -21 38 -48 40 -111 37 -156 -8 -29 -29 -34 -41 -34 -80 0 -39 6 -52 34 -83 29 -32 40 -37 77 -37 24 0 51 3 60 7 13 6 18 0 26 -31 l10 -38 -55 -13 c-64 -15 -68 -12 -103 66 -22 48 -45 70 -34 32 4 -13 18 -46 32 -73 20 -39 22 -50 11 -57 -20 -13 -21 -12 -65 34 -94 96 -114 203 -58 305 26 49 85 112 103 112 4 0 13 -4 20 -8z m677 -33 c56 -62 88 -140 83 -198 -6 -64 -42 -134 -91 -181 -31 -31 -44 -37 -58 -30 -16 9 -15 14 13 65 17 31 27 59 24 62 -3 3 0 13 6 21 10 11 8 17 -7 28 -22 16 -41 18 -50 4 -3 -5 -22 -10 -41 -10 -27 0 -37 5 -45 24 -27 59 25 107 81 74 19 -11 32 -12 48 -5 29 13 28 20 -9 51 -36 30 -101 35 -137 10 -21 -14 -22 -14 -22 8 0 13 -3 33 -6 45 -5 19 0 23 36 33 23 6 47 13 55 16 9 4 25 -14 45 -50 18 -31 36 -59 42 -62 15 -9 0 33 -28 83 -24 41 -21 50 12 52 7 1 28 -18 49 -40z m-577 -148 c33 -28 29 -65 -10 -84 -48 -23 -88 -3 -88 44 0 54 56 77 98 40z m285 -227 l45 -7 -15 -31 -15 -32 -98 0 c-94 0 -99 1 -109 23 -16 34 -14 41 12 46 36 7 131 7 180 1z m-212 -50 c16 -33 16 -35 -3 -45 -14 -8 -27 -5 -52 11 -54 33 -63 48 -35 59 48 19 73 13 90 -25z m345 26 c26 -10 26 -11 8 -31 -26 -29 -70 -50 -88 -43 -20 8 -20 17 -1 54 17 32 36 37 81 20z m-455 -47 c13 -14 20 -24 14 -22 -46 22 -64 33 -59 41 9 14 19 9 45 -19z m527 15 c-3 -7 -20 -18 -39 -25 l-34 -13 30 25 c32 27 49 32 43 13z m-234 -37 c18 -7 18 -8 -5 -24 -13 -9 -35 -17 -49 -17 -14 0 -36 8 -49 17 -23 16 -23 17 -5 24 24 10 84 10 108 0z"/>
 <path d="M552 724 c-30 -21 -52 -66 -52 -109 0 -26 9 -45 34 -72 30 -33 38 -37 84 -37 37 0 57 6 73 20 32 29 51 73 46 107 -3 23 0 31 15 35 11 3 18 13 18 29 0 22 -4 24 -40 21 -22 -1 -45 3 -52 10 -17 17 -100 15 -126 -4z m93 -54 c4 -6 -7 -10 -24 -10 -17 0 -31 5 -31 10 0 6 11 10 24 10 14 0 28 -4 31 -10z m28 -70 c-9 -36 -93 -39 -107 -5 -5 13 0 15 27 10 26 -5 42 -3 84 14 0 1 -1 -8 -4 -19z"/>
 </g>

</svg>